<svg xmlns="http://www.w3.org/2000/svg" xmlns:xlink="http://www.w3.org/1999/xlink"><symbol id="icon-arrow-left" viewBox="0 0 16 16"><g style="enable-background:new 0 0 16 16"><path d="M12.7 7.2H5.1l3.4-3.4c.3-.3.3-.8 0-1.1s-.8-.3-1.1 0L2.8 7.5c-.1 0-.1.1-.2.2-.1.2-.1.4 0 .6 0 .1.1.2.2.2l4.7 4.7c.1.1.3.2.5.2s.4-.1.5-.2c.3-.3.3-.8 0-1.1L5.1 8.8h7.5c.4 0 .8-.3.8-.8s-.3-.8-.7-.8z"/></g></symbol><symbol id="icon-arrow-right" viewBox="0 0 16 16"><g style="enable-background:new 0 0 16 16"><path d="M13.5 8c0-.3-.1-.5-.3-.6L8.6 2.8c-.3-.3-.8-.3-1.1 0s-.3.8 0 1.1l3.3 3.3H3.4c-.5 0-.8.4-.8.8s.3.8.7.8h7.5l-3.3 3.3c-.3.3-.3.8 0 1.1.1.1.3.2.5.2s.4-.1.6-.2l4.6-4.6c.2-.1.3-.3.3-.6z"/></g></symbol><symbol id="icon-checkmark-symbol" viewBox="79.349 109.866 340.863 273.702"><path d="M189.586 383.567 79.349 273.562l42.242-42.358 67.878 67.702 188.384-189.04 42.359 42.242z"/></symbol><symbol id="icon-chevron-down" viewBox="0 0 24 24"><g style="enable-background:new 0 0 24 24"><path d="M12 16c-.3 0-.5-.1-.7-.3l-6-6c-.4-.4-.4-1 0-1.4s1-.4 1.4 0l5.3 5.3 5.3-5.3c.4-.4 1-.4 1.4 0 .4.4.4 1 0 1.4l-6 6c-.2.2-.4.3-.7.3z"/></g></symbol><symbol id="icon-chevron-left" viewBox="0 0 16 16"><g style="enable-background:new 0 0 16 16"><path d="M10 12.8c-.2 0-.4-.1-.5-.2l-4-4c-.3-.3-.3-.8 0-1.1l4-4c.3-.3.8-.3 1.1 0s.3.8 0 1.1L7.1 8l3.5 3.5c.3.3.3.8 0 1.1-.2.1-.4.2-.6.2z" style="opacity:.9"/></g></symbol><symbol id="icon-close" viewBox="0 0 500 500"><path d="M501 44.872 456.128 0 251 205.128 45.872 0 1 44.872 206.128 250 1 455.128 45.872 500 251 294.872 456.128 500 501 455.128 295.872 250z"/></symbol></svg>