<svg version="1.1" id="Layer_1" xmlns="http://www.w3.org/2000/svg" x="0" y="0" width="24" height="24" viewBox="0 0 24 24" style="enable-background:new 0 0 24 24" xml:space="preserve"><style>.st0{opacity:.9}</style><path class="st0" d="M21 22H3c-.8 0-1.6-.3-2.1-.9-.6-.5-.9-1.3-.9-2.1V8c0-.8.3-1.6.9-2.1C1.4 5.3 2.2 5 3 5h3.5l1.7-2.6c.2-.2.5-.4.8-.4h6c.3 0 .6.2.8.4L17.5 5H21c.8 0 1.6.3 2.1.9.6.5.9 1.3.9 2.1v11c0 .8-.3 1.6-.9 2.1s-1.3.9-2.1.9zM3 7c-.3 0-.5.1-.7.3-.2.2-.3.4-.3.7v11c0 .3.1.5.3.7.2.2.4.3.7.3h18c.3 0 .5-.1.7-.3s.3-.4.3-.7V8c0-.3-.1-.5-.3-.7-.2-.2-.4-.3-.7-.3h-4c-.3 0-.6-.2-.8-.4L14.5 4h-5L7.8 6.6c-.2.2-.5.4-.8.4H3z"/><path class="st0" d="M12 18c-2.8 0-5-2.2-5-5s2.2-5 5-5 5 2.2 5 5-2.2 5-5 5zm0-8c-1.7 0-3 1.3-3 3s1.3 3 3 3 3-1.3 3-3-1.3-3-3-3z"/></svg>